<svg width="350" height="154" viewBox="0 0 350 154" fill="none" xmlns="http://www.w3.org/2000/svg">
<g clip-path="url(#clip0)" filter="url(#filter0_d)">
<path d="M175 130.498C269.441 130.498 346 128.729 346 126.546C346 124.363 269.441 122.594 175 122.594C80.5593 122.594 4 124.363 4 126.546C4 128.729 80.5593 130.498 175 130.498Z" fill="#E6E6E6"/>
<path d="M266.131 83.7237C265.915 83.7262 265.699 83.7286 265.48 83.7286C265.261 83.7286 265.046 83.7262 264.83 83.7237C253.383 83.5087 245.086 77.5996 247.198 71.3997L252.348 56.275L253.649 52.448L276.72 52.773L278.122 56.5169L283.641 71.253C285.978 77.4872 277.681 83.5087 266.131 83.7237Z" fill="#FAFAFF"/>
<path opacity="0.2" d="M278.122 56.5169C274.188 58.3748 269.725 59.3318 265.195 59.2893C260.664 59.2468 256.229 58.2062 252.347 56.275L253.649 52.448L276.72 52.773L278.122 56.5169Z" fill="black"/>
<path d="M277.148 71.9015C278.145 68.8327 281.42 64.4057 290.606 59.068C306.627 49.7577 297.07 42.7768 296.656 42.4843C295.787 41.8708 295.915 41.1819 296.954 40.9465C297.557 40.8468 298.18 40.8549 298.779 40.9702C299.378 41.0854 299.941 41.3052 300.429 41.6148C300.948 41.9693 312.915 50.413 294.837 60.9173C278.568 70.3723 282.027 76.5443 282.067 76.6035C282.503 77.2636 281.803 77.7917 280.504 77.7846C279.204 77.7775 277.796 77.2371 277.358 76.5777C277.267 76.4382 276.22 74.7585 277.148 71.9015Z" fill="#F9F9FF"/>
<path d="M254.832 85.928C254.482 85.928 254.136 85.8711 253.813 85.7606C253.49 85.6501 253.197 85.4881 252.95 85.2838C252.702 85.0796 252.506 84.8371 252.373 84.5703C252.239 84.3034 252.17 84.0174 252.17 83.7286V74.1978C252.17 73.6145 252.45 73.055 252.95 72.6426C253.449 72.2301 254.126 71.9984 254.832 71.9984C255.538 71.9984 256.215 72.2301 256.714 72.6426C257.214 73.055 257.494 73.6145 257.494 74.1978V83.7286C257.494 84.0174 257.425 84.3034 257.291 84.5703C257.158 84.8371 256.962 85.0796 256.714 85.2838C256.467 85.4881 256.174 85.6501 255.851 85.7606C255.528 85.8711 255.182 85.928 254.832 85.928V85.928Z" fill="#FDFDFF"/>
<path d="M257.166 63.3014C257.02 63.5638 256.813 63.7999 256.556 63.9961C256.3 64.1923 255.999 64.3449 255.671 64.4451C255.343 64.5452 254.995 64.5911 254.645 64.58C254.296 64.5688 253.953 64.501 253.635 64.3802L243.156 60.3966C242.515 60.1524 242.018 59.7081 241.774 59.1612C241.529 58.6144 241.558 58.0098 241.853 57.4802C242.147 56.9507 242.685 56.5395 243.346 56.337C244.008 56.1346 244.74 56.1574 245.381 56.4005L255.861 60.3841C256.178 60.5048 256.464 60.676 256.701 60.888C256.939 61.0999 257.123 61.3484 257.245 61.6193C257.366 61.8902 257.421 62.1782 257.408 62.4668C257.395 62.7555 257.312 63.0391 257.166 63.3014V63.3014Z" fill="#F9F9FF"/>
<path d="M273.794 63.3015C273.941 63.5639 274.148 63.7999 274.404 63.9961C274.661 64.1924 274.962 64.3449 275.29 64.4451C275.617 64.5453 275.966 64.5911 276.315 64.58C276.665 64.5689 277.008 64.501 277.325 64.3803L287.805 60.3967C288.446 60.1528 288.944 59.7085 289.189 59.1614C289.434 58.6143 289.406 58.0092 289.111 57.4793C288.816 56.9494 288.278 56.538 287.616 56.3357C286.953 56.1334 286.221 56.1567 285.58 56.4005L275.1 60.3841C274.783 60.5048 274.497 60.676 274.259 60.888C274.022 61.0999 273.837 61.3484 273.716 61.6194C273.595 61.8903 273.539 62.1782 273.553 62.4669C273.566 62.7555 273.648 63.0391 273.794 63.3015V63.3015Z" fill="#F9F9FF"/>
<path d="M276.128 85.928C276.478 85.928 276.824 85.8711 277.147 85.7606C277.47 85.6501 277.763 85.4881 278.011 85.2838C278.258 85.0796 278.454 84.8371 278.588 84.5703C278.722 84.3034 278.79 84.0174 278.79 83.7286V74.1978C278.79 73.6145 278.51 73.055 278.011 72.6426C277.511 72.2301 276.834 71.9984 276.128 71.9984C275.422 71.9984 274.745 72.2301 274.246 72.6426C273.747 73.055 273.466 73.6145 273.466 74.1978V83.7286C273.466 84.0174 273.535 84.3034 273.669 84.5703C273.803 84.8371 273.999 85.0796 274.246 85.2838C274.493 85.4881 274.787 85.6501 275.11 85.7606C275.433 85.8711 275.779 85.928 276.128 85.928V85.928Z" fill="#FAFAFE"/>
<path d="M287.254 24.2257C287.484 23.9863 287.65 23.7094 287.741 23.4131C287.832 23.1168 287.846 22.8079 287.782 22.5068L286.333 15.4649L284.884 8.42295C284.806 8.04273 284.608 7.68623 284.31 7.38927C284.012 7.09231 283.625 6.86536 283.187 6.73122C282.75 6.59709 282.277 6.5605 281.817 6.62513C281.357 6.68976 280.925 6.85334 280.566 7.09942L273.909 11.657L269.899 14.4029C267.224 14.0099 264.49 13.9758 261.802 14.302L257.939 11.657L251.282 7.09942C250.923 6.85334 250.491 6.68976 250.031 6.62513C249.571 6.5605 249.098 6.59709 248.661 6.73123C248.223 6.86536 247.836 7.09231 247.538 7.38927C247.24 7.68623 247.042 8.04274 246.964 8.42295L245.515 15.4649L244.066 22.5068C243.989 22.8769 244.029 23.2573 244.182 23.6108C241.699 26.7557 240.282 30.3928 240.077 34.1438C239.872 37.8947 240.887 41.6226 243.017 44.9395C245.147 48.2564 248.313 51.0413 252.187 53.0044C256.061 54.9674 260.501 56.037 265.045 56.1019C269.589 56.1668 274.071 55.2245 278.024 53.3732C281.978 51.5219 285.259 48.8291 287.527 45.5749C289.794 42.3207 290.964 38.6241 290.916 34.8695C290.868 31.1149 289.603 27.4396 287.254 24.2257V24.2257Z" fill="#FCFCFF"/>
<path d="M250.615 9.98514C250.457 9.98533 250.301 10.0088 250.153 10.0545C249.935 10.1199 249.743 10.2319 249.595 10.3791C249.448 10.5263 249.35 10.7033 249.313 10.892L247.556 19.4317C247.517 19.6199 247.539 19.8133 247.619 19.9923C247.7 20.1713 247.836 20.3297 248.014 20.4516C248.192 20.5734 248.405 20.6544 248.633 20.6864C248.861 20.7183 249.095 20.7002 249.312 20.6338L259.141 17.621C259.358 17.5546 259.55 17.4423 259.697 17.2953C259.844 17.1483 259.942 16.9718 259.981 16.7836C260.02 16.5954 259.998 16.4021 259.918 16.2231C259.837 16.0441 259.701 15.8857 259.523 15.7639L259.523 15.7636L251.451 10.2368C251.216 10.0747 250.921 9.98561 250.615 9.98514V9.98514Z" fill="#E6E6E6"/>
<path d="M281.233 9.98514C280.927 9.98561 280.631 10.0747 280.397 10.2368L272.325 15.7639C272.147 15.8857 272.011 16.0441 271.93 16.2231C271.85 16.4021 271.828 16.5954 271.867 16.7836C271.905 16.9718 272.003 17.1483 272.151 17.2953C272.298 17.4423 272.49 17.5546 272.707 17.621L282.536 20.6338C282.753 20.7002 282.987 20.7183 283.215 20.6864C283.443 20.6544 283.656 20.5734 283.834 20.4516C284.012 20.3297 284.148 20.1713 284.229 19.9923C284.309 19.8133 284.331 19.6199 284.292 19.4317L282.535 10.892C282.498 10.7033 282.4 10.5263 282.253 10.3791C282.105 10.2319 281.912 10.1199 281.695 10.0545C281.547 10.0088 281.391 9.98533 281.233 9.98514Z" fill="#E6E6E6"/>
<path d="M265.48 40.9622C267.44 40.9622 269.029 39.6492 269.029 38.0296C269.029 36.41 267.44 35.097 265.48 35.097C263.52 35.097 261.931 36.41 261.931 38.0296C261.931 39.6492 263.52 40.9622 265.48 40.9622Z" fill="#E6E6E6"/>
<path d="M265.48 37.2965C266.787 37.2965 267.846 36.9682 267.846 36.5633C267.846 36.1584 266.787 35.8302 265.48 35.8302C264.173 35.8302 263.114 36.1584 263.114 36.5633C263.114 36.9682 264.173 37.2965 265.48 37.2965Z" fill="#3F3D56"/>
<path d="M263.706 39.7403H266.959V43.0394C266.959 43.2159 266.917 43.3907 266.835 43.5538C266.754 43.7168 266.634 43.865 266.483 43.9898C266.332 44.1146 266.152 44.2136 265.955 44.2812C265.758 44.3487 265.546 44.3835 265.332 44.3835V44.3835C264.901 44.3835 264.487 44.2419 264.182 43.9898C263.877 43.7377 263.706 43.3959 263.706 43.0394V39.7403H263.706Z" fill="#FF6584"/>
<path d="M265.678 6.47702C265.507 6.76934 265.341 7.06482 265.186 7.36635C263.35 10.9034 262.731 14.7903 263.397 18.5993C263.73 18.2001 264.08 17.7842 264.436 17.3637C263.673 13.708 264.102 9.95059 265.678 6.47702V6.47702Z" fill="#3F3D56"/>
<path d="M268.34 9.16519C268.169 9.45751 268.004 9.75299 267.848 10.0545C266.012 13.5916 265.393 17.4785 266.059 21.2875C266.392 20.8883 266.742 20.4724 267.098 20.0519C266.335 16.3962 266.764 12.6388 268.34 9.16519V9.16519Z" fill="#3F3D56"/>
<path d="M276.547 61.9395L276.172 57.9992L275.797 54.0588C275.777 53.8461 275.689 53.6415 275.543 53.4656C275.397 53.2897 275.197 53.1487 274.964 53.0568C274.731 52.9649 274.472 52.9254 274.215 52.9421C273.957 52.9588 273.71 53.0313 273.497 53.1522L269.554 55.3907L266.675 57.0253C266.491 56.8473 266.262 56.7044 266.005 56.6063C265.748 56.5083 265.468 56.4576 265.184 56.4576C264.901 56.4576 264.621 56.5083 264.364 56.6063C264.107 56.7044 263.878 56.8473 263.694 57.0253L260.815 55.3907L256.872 53.1521C256.659 53.0313 256.412 52.9588 256.154 52.9421C255.897 52.9254 255.638 52.9649 255.405 53.0568C255.172 53.1487 254.972 53.2897 254.826 53.4656C254.68 53.6415 254.592 53.8461 254.572 54.0588L254.197 57.9992L253.822 61.9395C253.802 62.1523 253.85 62.3657 253.961 62.5583C254.072 62.7509 254.243 62.9159 254.455 63.0368C254.668 63.1577 254.916 63.2301 255.174 63.2468C255.431 63.2636 255.689 63.224 255.922 63.1321L260.24 61.4303L263.788 60.0319C263.97 60.1847 264.188 60.3061 264.428 60.3889C264.667 60.4717 264.925 60.5144 265.184 60.5144C265.444 60.5144 265.702 60.4717 265.941 60.3889C266.181 60.3061 266.399 60.1847 266.581 60.0319L270.129 61.4303L274.446 63.1321C274.68 63.224 274.938 63.2636 275.195 63.2468C275.453 63.2301 275.701 63.1577 275.913 63.0368C276.126 62.916 276.297 62.7509 276.408 62.5583C276.519 62.3657 276.567 62.1523 276.547 61.9395V61.9395Z" fill="#6C63FF"/>
<path d="M260.748 35.5858C261.238 35.5858 261.635 35.2576 261.635 34.8527C261.635 34.4478 261.238 34.1195 260.748 34.1195C260.258 34.1195 259.86 34.4478 259.86 34.8527C259.86 35.2576 260.258 35.5858 260.748 35.5858Z" fill="#0F0E0E"/>
<path d="M270.213 35.5858C270.703 35.5858 271.1 35.2576 271.1 34.8527C271.1 34.4478 270.703 34.1195 270.213 34.1195C269.722 34.1195 269.325 34.4478 269.325 34.8527C269.325 35.2576 269.722 35.5858 270.213 35.5858Z" fill="#0C0B0B"/>
<path d="M93.7915 77.2467C94.0075 77.2492 94.2234 77.2516 94.4423 77.2516C94.6611 77.2516 94.8771 77.2492 95.093 77.2467C106.54 77.0317 114.836 71.1226 112.725 64.9227L107.575 49.798L106.274 45.971L83.2025 46.296L81.8005 50.0399L76.2812 64.776C73.9446 71.0102 82.2413 77.0317 93.7915 77.2467Z" fill="#F8F8FF"/>
<path opacity="0.2" d="M81.8008 50.0399C85.7345 51.8978 90.197 52.8548 94.7278 52.8123C99.2586 52.7698 103.694 51.7292 107.575 49.798L106.274 45.971L83.2028 46.296L81.8008 50.0399Z" fill="black"/>
<path d="M79.9718 63.6319C77.4817 61.2105 72.2284 58.3673 61.1614 56.7906C41.8597 54.0396 46.8821 44.3513 47.1049 43.9405C47.5724 43.0789 47.0996 42.5016 46.0389 42.6561C45.4418 42.7794 44.8836 43.0066 44.4016 43.3227C43.9195 43.6388 43.5249 44.0363 43.244 44.4887C42.9588 44.9925 36.5154 56.8551 58.295 59.9579C77.8967 62.7517 77.9666 69.553 77.9614 69.6205C77.9092 70.3713 78.8146 70.6015 79.9857 70.1355C81.1568 69.6696 82.1495 68.6834 82.2033 67.9328C82.2142 67.7742 82.2905 65.8858 79.9718 63.6319Z" fill="#FCFCFF"/>
<path d="M105.09 79.451C105.44 79.451 105.786 79.3941 106.109 79.2836C106.432 79.1731 106.725 79.0111 106.973 78.8068C107.22 78.6026 107.416 78.3601 107.55 78.0933C107.683 77.8264 107.752 77.5404 107.752 77.2516V67.7208C107.751 67.1379 107.471 66.5792 106.971 66.1673C106.472 65.7554 105.796 65.524 105.09 65.524C104.385 65.524 103.708 65.7554 103.209 66.1673C102.71 66.5792 102.429 67.1379 102.428 67.7208V77.2516C102.428 77.5404 102.497 77.8264 102.631 78.0933C102.765 78.3601 102.961 78.6026 103.208 78.8068C103.455 79.0111 103.749 79.1731 104.072 79.2836C104.394 79.3941 104.741 79.451 105.09 79.451V79.451Z" fill="#FAFAFF"/>
<path d="M102.756 56.8244C102.903 57.0868 103.11 57.3229 103.366 57.5191C103.623 57.7153 103.924 57.8679 104.251 57.968C104.579 58.0682 104.928 58.1141 105.277 58.1029C105.627 58.0918 105.97 58.0239 106.287 57.9032L116.767 53.9196C117.085 53.7991 117.371 53.628 117.609 53.416C117.847 53.2041 118.032 52.9555 118.153 52.6845C118.275 52.4134 118.33 52.1253 118.317 51.8364C118.304 51.5476 118.221 51.2638 118.075 51.0013C117.929 50.7387 117.722 50.5025 117.465 50.3062C117.208 50.1099 116.907 49.9573 116.579 49.8572C116.251 49.7571 115.902 49.7115 115.552 49.7228C115.203 49.7342 114.859 49.8024 114.542 49.9234L104.062 53.907C103.745 54.0278 103.459 54.199 103.221 54.4109C102.984 54.6229 102.799 54.8714 102.678 55.1423C102.557 55.4132 102.501 55.7012 102.515 55.9898C102.528 56.2784 102.61 56.562 102.756 56.8244V56.8244Z" fill="#F7F7FE"/>
<path d="M86.1284 56.8244C85.9823 57.0868 85.7751 57.3229 85.5185 57.5191C85.262 57.7153 84.9612 57.8679 84.6333 57.968C84.3054 58.0682 83.9569 58.1141 83.6076 58.1029C83.2582 58.0918 82.915 58.0239 82.5974 57.9032L72.1179 53.9196C71.7999 53.7991 71.5138 53.628 71.276 53.416C71.0381 53.2041 70.8531 52.9555 70.7316 52.6845C70.6101 52.4134 70.5545 52.1253 70.5679 51.8364C70.5812 51.5476 70.6634 51.2638 70.8096 51.0013C70.9558 50.7387 71.1632 50.5025 71.42 50.3062C71.6768 50.1099 71.9778 49.9573 72.306 49.8572C72.6342 49.7571 72.983 49.7115 73.3326 49.7228C73.6821 49.7342 74.0255 49.8024 74.3432 49.9234L84.8227 53.907C85.1403 54.0278 85.426 54.199 85.6635 54.4109C85.901 54.6229 86.0856 54.8714 86.2069 55.1423C86.3281 55.4132 86.3836 55.7012 86.3701 55.9898C86.3567 56.2784 86.2745 56.562 86.1284 56.8244Z" fill="#FCFCFF"/>
<path d="M83.7939 79.451C83.4443 79.451 83.0981 79.3941 82.7751 79.2836C82.4522 79.1731 82.1587 79.0111 81.9115 78.8068C81.6643 78.6026 81.4682 78.3601 81.3345 78.0933C81.2007 77.8264 81.1318 77.5404 81.1318 77.2516V67.7208C81.1327 67.1379 81.4135 66.5792 81.9127 66.1673C82.4118 65.7554 83.0884 65.524 83.7939 65.524C84.4993 65.524 85.1759 65.7554 85.6751 66.1673C86.1742 66.5792 86.4551 67.1379 86.4559 67.7208V77.2516C86.4559 77.5404 86.3871 77.8264 86.2533 78.0933C86.1195 78.3601 85.9234 78.6026 85.6762 78.8068C85.429 79.0111 85.1356 79.1731 84.8126 79.2836C84.4896 79.3941 84.1435 79.451 83.7939 79.451V79.451Z" fill="#F9F9FE"/>
<path d="M115.741 17.1338C115.894 16.7803 115.934 16.3999 115.857 16.0298L114.408 8.98788L112.959 1.94594C112.881 1.56573 112.683 1.20922 112.385 0.91226C112.087 0.6153 111.7 0.38835 111.262 0.254215C110.825 0.12008 110.352 0.0834853 109.892 0.148117C109.431 0.212748 109 0.376327 108.641 0.622407L101.984 5.18004L98.1205 7.82498C95.4328 7.49883 92.699 7.53289 90.0243 7.92584L86.0138 5.18003L79.357 0.622398C78.9976 0.376317 78.5661 0.212739 78.1059 0.148107C77.6457 0.0834751 77.173 0.120065 76.7354 0.254201C76.2977 0.388336 75.9105 0.615289 75.6127 0.91225C75.3148 1.20921 75.1169 1.56572 75.0386 1.94593L73.5898 8.98788L72.141 16.0298C72.0771 16.3309 72.0911 16.6398 72.1821 16.9361C72.2732 17.2323 72.4393 17.5093 72.6693 17.7487C70.3164 20.9633 69.0492 24.6402 68.9996 28.3966C68.9499 32.1531 70.1197 35.852 72.3872 39.1082C74.6547 42.3645 77.9369 45.0591 81.8925 46.9118C85.848 48.7645 90.3321 49.7074 94.8784 49.6425C99.4246 49.5776 103.867 48.5072 107.742 46.5428C111.618 44.5783 114.786 41.7916 116.916 38.4725C119.046 35.1535 120.06 31.4235 119.853 27.6707C119.647 23.9178 118.227 20.2794 115.741 17.1338H115.741Z" fill="#F8F8FF"/>
<path d="M108.472 3.75978L100.399 9.2866L100.399 9.28684C100.221 9.40867 100.085 9.56703 100.005 9.74603C99.9247 9.92503 99.9027 10.1184 99.9415 10.3066C99.9802 10.4948 100.078 10.6713 100.226 10.8183C100.373 10.9653 100.565 11.0776 100.781 11.144L110.611 14.1568C110.828 14.2232 111.062 14.2413 111.289 14.2093C111.517 14.1773 111.731 14.0964 111.909 13.9745C112.087 13.8527 112.223 13.6943 112.303 13.5153C112.384 13.3363 112.406 13.1429 112.367 12.9547L110.61 4.41499C110.572 4.22632 110.475 4.0493 110.327 3.9021C110.18 3.7549 109.987 3.64285 109.77 3.57745C109.622 3.53178 109.465 3.5083 109.307 3.50812C109.002 3.50859 108.706 3.59765 108.472 3.75978V3.75978Z" fill="#E6E6E6"/>
<path d="M78.2276 3.57745C78.0102 3.64284 77.8177 3.7549 77.67 3.90209C77.5224 4.04929 77.4248 4.22632 77.3873 4.41499L75.6304 12.9547C75.5917 13.1429 75.6136 13.3363 75.694 13.5153C75.7744 13.6943 75.9104 13.8527 76.0884 13.9745C76.2663 14.0964 76.48 14.1773 76.7078 14.2093C76.9356 14.2413 77.1697 14.2232 77.3863 14.1568L87.2159 11.144C87.4325 11.0776 87.6242 10.9653 87.7716 10.8183C87.9191 10.6713 88.0171 10.4948 88.0558 10.3066C88.0945 10.1184 88.0726 9.92503 87.9923 9.74603C87.9119 9.56703 87.7759 9.40867 87.598 9.28684L79.5254 3.75978C79.2912 3.59765 78.9955 3.50859 78.6899 3.50812C78.532 3.5083 78.3755 3.53178 78.2276 3.57745Z" fill="#E6E6E6"/>
<path d="M94.4424 34.4851C96.4027 34.4851 97.9918 33.1722 97.9918 31.5526C97.9918 29.933 96.4027 28.62 94.4424 28.62C92.4822 28.62 90.8931 29.933 90.8931 31.5526C90.8931 33.1722 92.4822 34.4851 94.4424 34.4851Z" fill="#E6E6E6"/>
<path d="M94.4424 30.8195C95.7493 30.8195 96.8087 30.4912 96.8087 30.0863C96.8087 29.6814 95.7493 29.3532 94.4424 29.3532C93.1356 29.3532 92.0762 29.6814 92.0762 30.0863C92.0762 30.4912 93.1356 30.8195 94.4424 30.8195Z" fill="#3F3D56"/>
<path d="M94.59 37.9065C94.3764 37.9065 94.1648 37.8717 93.9675 37.8041C93.7701 37.7366 93.5907 37.6376 93.4397 37.5128C93.2886 37.388 93.1688 37.2398 93.087 37.0767C93.0053 36.9137 92.9632 36.7389 92.9632 36.5624V33.2632H96.2168V36.5624C96.2168 36.7389 96.1747 36.9137 96.093 37.0767C96.0112 37.2398 95.8914 37.388 95.7403 37.5128C95.5893 37.6376 95.4099 37.7366 95.2126 37.8041C95.0152 37.8717 94.8036 37.9065 94.59 37.9065V37.9065Z" fill="#FF6584"/>
<path d="M94.2446 0C94.4152 0.292318 94.5809 0.587798 94.7367 0.88932C96.5723 4.42639 97.1914 8.31329 96.5257 12.1223C96.1927 11.7231 95.8427 11.3072 95.4867 10.8867C96.2491 7.23102 95.8204 3.47357 94.2446 0V0Z" fill="#3F3D56"/>
<path d="M91.583 2.68817C91.7536 2.98049 91.9193 3.27597 92.0751 3.57749C93.9107 7.11456 94.5297 11.0015 93.8641 14.8105C93.5311 14.4113 93.1811 13.9954 92.8251 13.5749C93.5875 9.91919 93.1588 6.16174 91.583 2.68817V2.68817Z" fill="#3F3D56"/>
<path d="M83.3756 12.6961L83.7506 8.7557L84.1256 4.81535C84.1459 4.60259 84.2336 4.39799 84.3799 4.2221C84.5261 4.04622 84.7259 3.90524 84.959 3.81335C85.1921 3.72146 85.4504 3.6819 85.7079 3.69863C85.9654 3.71536 86.2131 3.7878 86.426 3.90867L90.3687 6.14717L93.2478 7.7818C93.4318 7.6038 93.6603 7.46087 93.9176 7.36286C94.1749 7.26486 94.4549 7.21411 94.7382 7.21411C95.0215 7.21411 95.3015 7.26486 95.5588 7.36286C95.8161 7.46087 96.0446 7.6038 96.2286 7.7818L99.1077 6.14717L103.05 3.90867C103.263 3.7878 103.511 3.71536 103.768 3.69863C104.026 3.6819 104.284 3.72146 104.517 3.81335C104.75 3.90524 104.95 4.04622 105.097 4.2221C105.243 4.39799 105.33 4.60259 105.351 4.81535L105.726 8.7557L106.101 12.6961C106.121 12.9088 106.073 13.1222 105.962 13.3148C105.851 13.5074 105.68 13.6725 105.467 13.7933C105.254 13.9142 105.007 13.9866 104.749 14.0034C104.492 14.0201 104.233 13.9805 104 13.8886L99.6825 12.1868L96.1348 10.7885C95.9523 10.9413 95.7348 11.0626 95.4951 11.1454C95.2553 11.2283 94.998 11.2709 94.7382 11.2709C94.4783 11.2709 94.221 11.2283 93.9813 11.1454C93.7415 11.0626 93.5241 10.9413 93.3415 10.7885L89.7938 12.1868L85.4761 13.8887C85.243 13.9805 84.9847 14.0201 84.7272 14.0034C84.4697 13.9867 84.2221 13.9142 84.0092 13.7934C83.7963 13.6725 83.6257 13.5074 83.5145 13.3148C83.4033 13.1222 83.3554 12.9088 83.3756 12.6961V12.6961Z" fill="#6C63FF"/>
<path d="M98.2876 28.3757C98.2876 28.7806 98.6849 28.3757 99.1749 28.3757C99.665 28.3757 100.062 28.7806 100.062 28.3757C100.062 28.1815 99.9681 27.9954 99.8017 27.8582C99.6354 27.7211 99.41 27.644 99.1749 27.644C98.9399 27.644 98.7145 27.7211 98.5481 27.8582C98.3818 27.9954 98.2881 28.1815 98.2876 28.3757V28.3757Z" fill="#0F0E0E"/>
<path d="M90.597 28.3757C90.597 28.7806 90.1997 28.3757 89.7096 28.3757C89.2195 28.3757 88.8223 28.7806 88.8223 28.3757C88.8228 28.1815 88.9165 27.9954 89.0828 27.8582C89.2492 27.7211 89.4746 27.644 89.7096 27.644C89.9446 27.644 90.1701 27.7211 90.3364 27.8582C90.5028 27.9954 90.5965 28.1815 90.597 28.3757V28.3757Z" fill="#090808"/>
<path d="M189.045 83.73V79.0698H160.844V79.3613V83.73V121.302V125.963H166.484H189.045V121.302H166.484V83.73H189.045Z" fill="#F8F8FF"/>
<path d="M202.793 79.0699V125.962H230.995V79.0699H202.793ZM225.355 121.302H208.434V83.7301H225.355V121.302Z" fill="#6C63FF"/>
<path d="M124.534 121.302V79.3613H118.894V121.302V125.963H124.534H147.095V121.302H124.534Z" fill="#6C63FF"/>
<path d="M106.203 83.73V79.0698H78.001V79.3613V83.73V100.041V104.701V121.302V125.963H83.6414H106.203V121.302H83.6414V104.701H106.203V100.041H83.6414V83.73H106.203Z" fill="#F3F2FE"/>
<path d="M326.88 83.73V79.0698H298.679V79.3613V83.73V100.041V104.701V121.302V125.963H304.319H326.88V121.302H304.319V104.701H326.88V100.041H304.319V83.73H326.88Z" fill="#6C63FF"/>
<path d="M58.9649 79.3613V117.876L44.0932 105.589L44.0593 105.618L44.0278 105.592L28.8245 118.153V79.2157H23.1841V125.817H28.8245V124.743L44.062 112.154L58.9649 124.467V125.963H64.6053V79.3613H58.9649Z" fill="#F8F8FC"/>
<path d="M279.996 79.3613V80.4349L264.758 93.0243L249.855 80.7114V79.2157H244.214V125.817H249.855V87.3017L264.726 99.5889L264.761 99.5606L264.792 99.5864L279.996 87.0252V125.963H285.636V79.3613H279.996Z" fill="#F9F9FF"/>
<path d="M132.893 50.654C134.805 50.654 136.355 49.3734 136.355 47.7936C136.355 46.2139 134.805 44.9332 132.893 44.9332C130.981 44.9332 129.431 46.2139 129.431 47.7936C129.431 49.3734 130.981 50.654 132.893 50.654Z" fill="#6C63FF"/>
<path d="M47.4967 82.436C49.4087 82.436 50.9587 81.1554 50.9587 79.5756C50.9587 77.9959 49.4087 76.7152 47.4967 76.7152C45.5847 76.7152 44.0347 77.9959 44.0347 79.5756C44.0347 81.1554 45.5847 82.436 47.4967 82.436Z" fill="#6C63FF"/>
<path d="M115.968 146C117.88 146 119.43 144.719 119.43 143.14C119.43 141.56 117.88 140.279 115.968 140.279C114.056 140.279 112.506 141.56 112.506 143.14C112.506 144.719 114.056 146 115.968 146Z" fill="#6C63FF"/>
<path d="M202.903 59.2351C204.815 59.2351 206.365 57.9545 206.365 56.3748C206.365 54.795 204.815 53.5144 202.903 53.5144C200.991 53.5144 199.441 54.795 199.441 56.3748C199.441 57.9545 200.991 59.2351 202.903 59.2351Z" fill="#6C63FF"/>
<path d="M304.84 143.457C306.752 143.457 308.302 142.177 308.302 140.597C308.302 139.017 306.752 137.737 304.84 137.737C302.928 137.737 301.378 139.017 301.378 140.597C301.378 142.177 302.928 143.457 304.84 143.457Z" fill="#6C63FF"/>
<path d="M308.302 68.4519C310.214 68.4519 311.764 67.1713 311.764 65.5915C311.764 64.0118 310.214 62.7312 308.302 62.7312C306.39 62.7312 304.84 64.0118 304.84 65.5915C304.84 67.1713 306.39 68.4519 308.302 68.4519Z" fill="#6C63FF"/>
<path d="M264.45 119.939C266.362 119.939 267.912 118.658 267.912 117.078C267.912 115.499 266.362 114.218 264.45 114.218C262.538 114.218 260.988 115.499 260.988 117.078C260.988 118.658 262.538 119.939 264.45 119.939Z" fill="#6C63FF"/>
</g>
<defs>
<filter id="filter0_d" x="0" y="0" width="350" height="154" filterUnits="userSpaceOnUse" color-interpolation-filters="sRGB">
<feFlood flood-opacity="0" result="BackgroundImageFix"/>
<feColorMatrix in="SourceAlpha" type="matrix" values="0 0 0 0 0 0 0 0 0 0 0 0 0 0 0 0 0 0 127 0"/>
<feOffset dy="4"/>
<feGaussianBlur stdDeviation="2"/>
<feColorMatrix type="matrix" values="0 0 0 0 0 0 0 0 0 0 0 0 0 0 0 0 0 0 0.25 0"/>
<feBlend mode="normal" in2="BackgroundImageFix" result="effect1_dropShadow"/>
<feBlend mode="normal" in="SourceGraphic" in2="effect1_dropShadow" result="shape"/>
</filter>
<clipPath id="clip0">
<rect width="342" height="146" fill="white" transform="translate(4)"/>
</clipPath>
</defs>
</svg>
