<svg width="375" height="409" viewBox="0 0 375 409" fill="none" xmlns="http://www.w3.org/2000/svg">
<g clip-path="url(#clip0)">
<path d="M156.932 232.616C157.173 232.717 157.391 232.864 157.573 233.047C157.755 233.231 157.899 233.448 157.996 233.686C158.093 233.923 158.141 234.178 158.137 234.433C158.134 234.689 158.078 234.942 157.975 235.177L155.269 241.325L155.575 241.479L153.73 245.652L153.435 245.492L143.739 267.517C143.407 268.271 142.806 268.881 142.048 269.233C141.29 269.586 140.427 269.656 139.62 269.432L124.544 265.243C124.177 265.141 123.837 264.962 123.549 264.718C123.26 264.474 123.029 264.171 122.873 263.831C122.717 263.49 122.638 263.12 122.643 262.747C122.648 262.374 122.737 262.007 122.903 261.67L138.098 230.853C138.417 230.206 138.952 229.684 139.614 229.373C140.277 229.063 141.028 228.982 141.744 229.144L156.578 232.504C156.699 232.53 156.818 232.568 156.932 232.616Z" fill="#3F3D56"/>
<path d="M144.385 231.519L152.184 233.285C152.324 233.317 152.471 233.303 152.602 233.244C152.734 233.186 152.841 233.087 152.909 232.963C152.986 232.822 153.108 232.71 153.257 232.644C153.406 232.578 153.572 232.562 153.731 232.598L155.374 232.97C155.598 233.021 155.808 233.119 155.989 233.258C156.17 233.397 156.318 233.573 156.422 233.773C156.526 233.974 156.584 234.195 156.591 234.42C156.598 234.644 156.555 234.868 156.464 235.075L142.431 267.018C142.257 267.414 141.94 267.734 141.54 267.916C141.14 268.098 140.686 268.13 140.263 268.006L125.294 263.588C125.103 263.532 124.927 263.436 124.777 263.307C124.627 263.178 124.508 263.019 124.427 262.84C124.346 262.662 124.306 262.469 124.308 262.274C124.311 262.079 124.356 261.886 124.442 261.71L139.273 231.09C139.492 230.639 139.861 230.274 140.321 230.057C140.78 229.84 141.302 229.782 141.799 229.895L143.531 230.287C143.489 230.56 143.553 230.838 143.711 231.067C143.87 231.295 144.11 231.457 144.385 231.519Z" fill="#6C63FF"/>
<path d="M205.168 66.5849C198.435 66.5849 191.854 64.6324 186.256 60.9741C180.658 57.3159 176.295 52.1163 173.718 46.0329C171.142 39.9495 170.468 33.2555 171.781 26.7974C173.095 20.3393 176.337 14.4071 181.097 9.7511C185.858 5.09507 191.923 1.92427 198.527 0.639674C205.13 -0.644923 211.975 0.0143815 218.195 2.53421C224.415 5.05404 229.731 9.32121 233.472 14.7961C237.212 20.271 239.209 26.7078 239.209 33.2924C239.198 42.1191 235.609 50.5813 229.227 56.8227C222.845 63.0641 214.193 66.5749 205.168 66.5849ZM205.168 1.58532C198.756 1.58532 192.488 3.44491 187.156 6.92893C181.825 10.413 177.67 15.3649 175.216 21.1586C172.762 26.9524 172.12 33.3276 173.371 39.4782C174.622 45.6288 177.71 51.2785 182.244 55.7128C186.778 60.1471 192.554 63.1669 198.843 64.3903C205.132 65.6137 211.65 64.9858 217.574 62.586C223.498 60.1862 228.562 56.1222 232.124 50.908C235.686 45.6938 237.588 39.5635 237.588 33.2924C237.578 24.8861 234.159 16.8268 228.081 10.8826C222.004 4.93844 213.763 1.59482 205.168 1.58532Z" fill="#CCCCCC"/>
<path d="M336.468 97.4994C329.735 97.4994 323.154 95.5468 317.556 91.8886C311.958 88.2304 307.595 83.0308 305.018 76.9474C302.442 70.864 301.768 64.17 303.081 57.7118C304.395 51.2537 307.637 45.3216 312.398 40.6655C317.158 36.0095 323.224 32.8387 329.827 31.5541C336.43 30.2695 343.275 30.9288 349.495 33.4487C355.715 35.9685 361.032 40.2357 364.772 45.7106C368.513 51.1855 370.509 57.6223 370.509 64.2069C370.499 73.0335 366.909 81.4958 360.527 87.7372C354.146 93.9786 345.493 97.4894 336.468 97.4994ZM336.468 32.4998C330.056 32.4998 323.788 34.3594 318.457 37.8434C313.125 41.3274 308.97 46.2794 306.516 52.0731C304.062 57.8668 303.42 64.2421 304.671 70.3926C305.922 76.5432 309.01 82.1929 313.544 86.6272C318.078 91.0615 323.855 94.0813 330.143 95.3048C336.432 96.5282 342.951 95.9003 348.875 93.5005C354.799 91.1006 359.862 87.0366 363.424 81.8224C366.987 76.6082 368.888 70.478 368.888 64.2069C368.878 55.8006 365.46 47.7412 359.382 41.7971C353.304 35.8529 345.063 32.5093 336.468 32.4998Z" fill="#CCCCCC"/>
<path d="M275.681 202.926C268.948 202.926 262.367 200.973 256.769 197.315C251.171 193.657 246.808 188.457 244.231 182.374C241.655 176.29 240.981 169.596 242.294 163.138C243.608 156.68 246.85 150.748 251.61 146.092C256.371 141.436 262.437 138.265 269.04 136.98C275.643 135.696 282.488 136.355 288.708 138.875C294.928 141.395 300.245 145.662 303.985 151.137C307.726 156.612 309.722 163.048 309.722 169.633C309.712 178.46 306.122 186.922 299.74 193.163C293.359 199.405 284.706 202.916 275.681 202.926ZM275.681 137.926C269.269 137.926 263.001 139.786 257.67 143.27C252.338 146.754 248.183 151.706 245.729 157.499C243.275 163.293 242.633 169.668 243.884 175.819C245.135 181.969 248.223 187.619 252.757 192.053C257.291 196.488 263.067 199.508 269.356 200.731C275.645 201.954 282.164 201.326 288.088 198.927C294.012 196.527 299.075 192.463 302.637 187.249C306.2 182.034 308.101 175.904 308.101 169.633C308.091 161.227 304.672 153.167 298.595 147.223C292.517 141.279 284.276 137.935 275.681 137.926Z" fill="#CCCCCC"/>
<path d="M355.92 55.0893L359.973 54.2966C359.973 54.2966 356.569 58.0222 355.92 58.26C355.86 59.0516 355.86 59.8465 355.92 60.638C348.139 93.2964 319.448 78.8696 319.448 78.8696C329.903 79.1074 330.795 74.9062 330.795 74.9062C324.716 74.0343 323.5 70.1502 323.5 70.1502C324.046 70.4315 324.678 70.5063 325.276 70.36C325.874 70.2137 326.396 69.8568 326.742 69.3575C320.177 67.6929 321.069 61.4307 321.069 61.4307C322.239 62.257 323.606 62.7756 325.04 62.9368C324.311 62.0649 318.151 54.8515 321.879 51.1259C321.879 51.1259 326.418 59.0527 338.332 59.7661L339.143 59.6076C339.005 59.0366 338.95 58.4495 338.981 57.8637C338.981 55.6562 339.877 53.5392 341.473 51.9783C343.069 50.4174 345.234 49.5406 347.491 49.5406C353.164 49.5406 354.38 52.7113 354.38 52.7113L358.433 50.3332C358.352 50.3332 357.946 54.2966 355.92 55.0893Z" fill="white"/>
<path d="M290.813 151.4L260.774 151.403C260.387 151.384 260.001 151.441 259.637 151.569C259.274 151.697 258.939 151.894 258.653 152.149C258.368 152.404 258.136 152.711 257.972 153.054C257.808 153.396 257.715 153.767 257.698 154.145L257.701 183.589C257.722 184.381 258.052 185.135 258.624 185.696C259.197 186.257 259.967 186.583 260.777 186.605L290.807 186.603C291.598 186.572 292.344 186.238 292.884 185.674C293.425 185.109 293.716 184.359 293.695 183.586L293.692 154.141C293.698 153.773 293.628 153.408 293.484 153.068C293.341 152.727 293.128 152.419 292.858 152.163C292.588 151.906 292.268 151.706 291.916 151.575C291.564 151.444 291.189 151.384 290.813 151.4ZM268.858 180.745L263.702 180.745L263.7 165.065L268.857 165.065L268.858 180.745ZM266.456 162.681H266.419C265.677 162.676 264.968 162.384 264.446 161.868C263.924 161.353 263.632 160.656 263.634 159.93C263.637 159.204 263.933 158.509 264.459 157.997C264.984 157.485 265.696 157.197 266.438 157.197C267.18 157.197 267.892 157.485 268.417 157.997C268.943 158.509 269.239 159.204 269.242 159.93C269.244 160.656 268.952 161.353 268.43 161.868C267.908 162.384 267.198 162.676 266.456 162.681ZM287.703 180.743L282.547 180.744L282.546 172.17C282.546 170.116 281.795 168.713 279.93 168.713C279.346 168.718 278.779 168.899 278.305 169.233C277.831 169.566 277.475 170.035 277.286 170.575C277.149 170.973 277.088 171.393 277.108 171.813L277.108 180.744L271.952 180.745L271.951 165.065L277.107 165.064L277.107 167.246C277.577 166.452 278.256 165.796 279.074 165.348C279.893 164.899 280.819 164.674 281.757 164.697C285.142 164.697 287.703 166.878 287.703 171.583V180.743Z" fill="white"/>
<path fill-rule="evenodd" clip-rule="evenodd" d="M227.421 33.4231C227.42 29.2641 226.201 25.1924 223.908 21.69C221.614 18.1876 218.343 15.4012 214.481 13.6607C210.618 11.9202 206.327 11.2984 202.115 11.869C197.902 12.4396 193.945 14.1787 190.712 16.8803C187.479 19.582 185.105 23.1331 183.872 27.1132C182.638 31.0934 182.596 35.336 183.751 39.3386C184.906 43.3413 187.21 46.9365 190.389 49.6985C193.568 52.4606 197.49 54.2739 201.691 54.9237V39.7162H196.039V33.4231H201.691V28.6273C201.691 23.1737 205.014 20.1588 210.096 20.1588C211.765 20.1815 213.43 20.3238 215.078 20.5844V25.9408H212.271C209.508 25.9408 208.644 27.6178 208.644 29.3414V33.4241H214.815L213.83 39.7172H208.644V54.9257C213.879 54.1148 218.646 51.5037 222.088 47.562C225.53 43.6203 227.421 38.6067 227.421 33.4231V33.4231Z" fill="#FEFEFF"/>
<path d="M107.26 399.082L116.526 399.081L120.932 364.127L107.257 364.128L107.26 399.082Z" fill="#FFB8B8"/>
<path d="M134.396 407.494L105.275 407.497L105.274 396.493L123.144 396.491C124.621 396.491 126.084 396.775 127.449 397.328C128.815 397.881 130.055 398.692 131.1 399.713C132.145 400.735 132.974 401.948 133.539 403.283C134.105 404.618 134.396 406.049 134.396 407.494L134.396 407.494Z" fill="#2F2E41"/>
<path d="M57.3153 399.082L66.5817 399.081L70.9875 364.127L57.312 364.128L57.3153 399.082Z" fill="#FFB8B8"/>
<path d="M84.4521 407.494L55.3312 407.497L55.3302 396.493L73.1999 396.491C76.1839 396.491 79.0458 397.65 81.156 399.713C83.2662 401.777 84.4519 404.576 84.4521 407.494L84.4521 407.494Z" fill="#2F2E41"/>
<path d="M84.4521 150.597C95.4462 150.597 104.359 141.88 104.359 131.128C104.359 120.375 95.4462 111.659 84.4521 111.659C73.4579 111.659 64.5454 120.375 64.5454 131.128C64.5454 141.88 73.4579 150.597 84.4521 150.597Z" fill="#FFB8B8"/>
<path d="M152.52 258.097C152.381 257.019 152.001 255.984 151.409 255.065C150.817 254.145 150.026 253.364 149.091 252.776C148.157 252.188 147.102 251.808 146.001 251.662C144.9 251.516 143.78 251.608 142.719 251.931L131.594 238.888L121.84 243.567L137.816 261.77C138.489 263.477 139.779 264.883 141.441 265.722C143.104 266.561 145.023 266.774 146.836 266.321C148.648 265.868 150.228 264.781 151.275 263.266C152.323 261.75 152.766 259.911 152.52 258.097Z" fill="#FFB8B8"/>
<path d="M56.7722 271.289C57.2463 270.306 57.4943 269.234 57.4987 268.147C57.5032 267.06 57.2639 265.986 56.7979 265C56.3318 264.013 55.6503 263.139 54.8013 262.438C53.9523 261.737 52.9565 261.226 51.884 260.942L49.6505 244.098L38.853 242.929L42.3488 266.673C41.9807 268.467 42.2981 270.33 43.2409 271.91C44.1837 273.491 45.6865 274.678 47.4643 275.247C49.2422 275.816 51.1717 275.727 52.8872 274.997C54.6027 274.268 55.985 272.948 56.7723 271.289L56.7722 271.289Z" fill="#FFB8B8"/>
<path d="M41.662 260.989C40.7876 260.989 39.9423 260.681 39.2802 260.123C38.6181 259.564 38.1832 258.792 38.0547 257.946L32.74 222.942C32.0722 218.536 32.6123 214.035 34.3053 209.9L50.6217 170.076C51.289 168.447 52.3837 167.019 53.7956 165.937C55.2074 164.854 56.8863 164.155 58.6628 163.909C60.4392 163.664 62.2505 163.881 63.9137 164.539C65.5769 165.197 67.0331 166.273 68.1355 167.657H68.1356C69.2748 169.084 69.9945 170.788 70.2172 172.585C70.44 174.383 70.1574 176.205 69.3999 177.857L61.7079 194.684C53.0814 213.562 49.8265 234.367 52.2869 254.903C52.3864 255.732 52.1856 256.569 51.7193 257.268C51.253 257.967 50.5509 258.484 49.7351 258.729L42.7332 260.832C42.3861 260.936 42.0251 260.989 41.662 260.989Z" fill="#CCCCCC"/>
<path d="M79.6051 150.596C76.609 150.659 73.6332 150.102 70.8732 148.96C68.1132 147.818 65.6314 146.119 63.591 143.972C61.5505 141.826 59.9977 139.281 59.0344 136.506C58.0711 133.73 57.7193 130.787 58.0019 127.869C58.2846 124.952 59.1954 122.125 60.6744 119.576C62.1535 117.027 64.1673 114.813 66.5836 113.08C68.9999 111.346 71.764 110.132 74.6941 109.518C77.6243 108.904 80.6542 108.903 83.5847 109.515C87.9624 106.916 93.0521 105.166 98.1533 105.611C103.254 106.056 108.299 109.018 110.207 113.666C112.115 118.315 110.065 124.442 105.322 126.331C102.281 127.542 98.8472 126.955 95.6021 126.467C92.3569 125.978 88.8168 125.66 85.9925 127.297C83.1682 128.935 81.8986 133.326 84.428 135.373C85.7689 136.502 86.7263 138.003 87.1729 139.677C87.6195 141.351 87.534 143.118 86.9278 144.743C85.6565 147.958 82.1869 150.541 79.6051 150.596Z" fill="#2F2E41"/>
<path d="M54.6182 392.039C54.131 392.04 53.6487 391.944 53.1998 391.759C52.7509 391.574 52.3444 391.303 52.0044 390.962C51.6643 390.621 51.3977 390.216 51.2201 389.772C51.0426 389.329 50.9577 388.855 50.9705 388.378L54.5118 256.94L54.8979 256.931L113.437 255.683L123.545 383.491C123.6 384.269 123.394 385.043 122.958 385.696C122.522 386.349 121.879 386.845 121.129 387.108L121.018 387.13L109.528 387.816C109.044 387.976 108.53 388.035 108.021 387.988C107.512 387.941 107.018 387.79 106.573 387.545C106.127 387.3 105.739 386.965 105.434 386.564C105.129 386.162 104.914 385.702 104.803 385.214L86.0741 303.254C86.0124 302.984 85.8564 302.744 85.6329 302.574C85.4094 302.405 85.1325 302.317 84.8498 302.325C84.5671 302.334 84.2963 302.439 84.0841 302.621C83.8718 302.804 83.7314 303.054 83.687 303.327L69.8508 388.452C69.7165 389.258 69.3046 389.995 68.6833 390.541C68.0621 391.087 67.2687 391.409 66.4347 391.454L54.8023 392.035C54.7408 392.038 54.6795 392.039 54.6182 392.039Z" fill="#2F2E41"/>
<path d="M71.8467 267.819C64.562 267.819 58.2004 266.743 54.6876 263.671C52.4302 261.698 51.4538 259.014 51.786 255.694C53.0344 243.215 50.8711 215.864 48.8366 195.116C48.3706 190.25 48.8988 185.342 50.3904 180.678C51.8821 176.013 54.3073 171.686 57.5251 167.946C60.6212 164.324 64.4328 161.35 68.7317 159.202C73.0306 157.054 77.7285 155.776 82.5441 155.445C89.2457 154.978 104.939 153.89 109.817 166.109C117.145 184.464 113.561 192.882 110.095 201.022C107.15 207.938 104.105 215.09 107.838 228.519C109.9 235.945 112.396 243.249 115.316 250.395C117.337 255.464 118.352 258.008 117.415 259.67C116.676 260.981 114.833 261.551 111.691 262.146C110.664 262.341 109.308 262.623 107.692 262.959C99.4803 264.666 84.3125 267.819 71.8467 267.819Z" fill="#CCCCCC"/>
<path d="M131.655 256.315C131.627 256.315 131.599 256.315 131.571 256.314C131.045 256.303 130.529 256.18 130.057 255.955C129.585 255.73 129.168 255.408 128.835 255.011L108.2 230.419C103.794 225.165 100.893 218.861 99.7932 212.152L93.4396 173.318C93.2253 172.008 93.2803 170.67 93.6014 169.381C93.9224 168.092 94.5029 166.879 95.3091 165.812C96.1153 164.746 97.1309 163.847 98.2964 163.169C99.462 162.491 100.754 162.047 102.097 161.863C103.44 161.679 104.807 161.759 106.119 162.099C107.43 162.438 108.658 163.029 109.733 163.839C110.808 164.648 111.706 165.659 112.377 166.812C113.047 167.965 113.475 169.237 113.637 170.554L116.163 191.151C118.498 210.178 126.043 228.235 138.001 243.415L139.445 245.247C139.966 245.908 140.233 246.727 140.2 247.561C140.168 248.395 139.837 249.191 139.266 249.811L134.365 255.135C134.023 255.506 133.605 255.804 133.138 256.007C132.671 256.21 132.166 256.315 131.655 256.315Z" fill="#CCCCCC"/>
<path d="M230.6 74.3779C238.095 74.3779 244.172 68.3697 244.172 60.9583C244.172 53.5469 238.095 47.5388 230.6 47.5388C223.104 47.5388 217.027 53.5469 217.027 60.9583C217.027 68.3697 223.104 74.3779 230.6 74.3779Z" fill="#3F3D56"/>
<path d="M233.314 68.1154H230.551V57.8177C229.531 58.7567 228.312 59.4638 226.98 59.8884V57.4089C227.835 57.1011 228.63 56.6522 229.33 56.0817C230.123 55.5012 230.727 54.7093 231.071 53.8012H233.314V68.1154Z" fill="#3F3D56"/>
<path d="M230.6 74.3779C238.095 74.3779 244.172 68.3697 244.172 60.9583C244.172 53.5469 238.095 47.5388 230.6 47.5388C223.104 47.5388 217.027 53.5469 217.027 60.9583C217.027 68.3697 223.104 74.3779 230.6 74.3779Z" fill="#6C63FF"/>
<path d="M233.314 68.1154H230.551V57.8177C229.531 58.7567 228.312 59.4638 226.98 59.8884V57.4089C227.835 57.1011 228.63 56.6522 229.33 56.0817C230.123 55.5012 230.727 54.7093 231.071 53.8012H233.314V68.1154Z" fill="white"/>
<path d="M361.28 107.944C368.858 107.944 375.001 101.936 375.001 94.5245C375.001 87.1131 368.858 81.1049 361.28 81.1049C353.702 81.1049 347.559 87.1131 347.559 94.5245C347.559 101.936 353.702 107.944 361.28 107.944Z" fill="#3F3D56"/>
<path d="M359.65 96.7181C359.603 97.4383 359.811 98.1524 360.238 98.7404C360.39 98.9535 360.591 99.1289 360.825 99.2527C361.058 99.3765 361.318 99.4452 361.583 99.4535C361.818 99.4556 362.051 99.4039 362.262 99.3025C362.473 99.2012 362.656 99.053 362.798 98.8697C363.173 98.3026 363.344 97.6299 363.284 96.9574C363.343 96.2512 363.158 95.5461 362.761 94.9539C362.61 94.759 362.416 94.6004 362.193 94.4904C361.97 94.3803 361.724 94.3216 361.474 94.3188C361.224 94.316 360.977 94.3691 360.751 94.4742C360.526 94.5792 360.328 94.7334 360.172 94.9248C359.788 95.4437 359.603 96.0788 359.65 96.7181ZM365.602 90.8569L363.059 91.1445C363.039 90.7069 362.868 90.289 362.573 89.9591C362.439 89.8311 362.28 89.7311 362.104 89.6653C361.929 89.5996 361.743 89.5694 361.555 89.5767C361.274 89.5806 360.999 89.6524 360.754 89.7858C360.508 89.9192 360.3 90.11 360.149 90.3412C359.642 91.3281 359.393 92.4225 359.424 93.5265C359.707 93.1554 360.075 92.8546 360.499 92.6484C360.923 92.4422 361.39 92.3363 361.863 92.3393C362.4 92.3374 362.931 92.4513 363.418 92.673C363.905 92.8946 364.336 93.2186 364.68 93.6218C365.485 94.5393 365.904 95.7216 365.853 96.9297C365.915 98.1933 365.473 99.4312 364.62 100.382C364.185 100.821 363.66 101.164 363.078 101.387C362.497 101.61 361.873 101.709 361.249 101.675C360.626 101.642 360.016 101.478 359.463 101.195C358.91 100.911 358.425 100.515 358.043 100.032C357.152 98.9328 356.706 97.1305 356.706 94.6251C356.706 92.0558 357.17 90.2039 358.098 89.0694C358.521 88.5266 359.069 88.0893 359.697 87.7934C360.326 87.4976 361.017 87.3516 361.714 87.3674C362.66 87.3343 363.583 87.6538 364.298 88.2612C365.028 88.9513 365.49 89.8694 365.602 90.8569Z" fill="#3F3D56"/>
<path d="M361.28 107.944C368.858 107.944 375.001 101.936 375.001 94.5245C375.001 87.1131 368.858 81.1049 361.28 81.1049C353.702 81.1049 347.559 87.1131 347.559 94.5245C347.559 101.936 353.702 107.944 361.28 107.944Z" fill="#6C63FF"/>
<path d="M359.65 96.7181C359.603 97.4383 359.811 98.1524 360.238 98.7404C360.39 98.9535 360.591 99.1289 360.825 99.2527C361.058 99.3765 361.318 99.4452 361.583 99.4535C361.818 99.4556 362.051 99.4039 362.262 99.3025C362.473 99.2012 362.656 99.053 362.798 98.8697C363.173 98.3026 363.344 97.6299 363.284 96.9574C363.343 96.2512 363.158 95.5461 362.761 94.9539C362.61 94.759 362.416 94.6004 362.193 94.4904C361.97 94.3803 361.724 94.3216 361.474 94.3188C361.224 94.316 360.977 94.3691 360.751 94.4742C360.526 94.5792 360.328 94.7334 360.172 94.9248C359.788 95.4437 359.603 96.0788 359.65 96.7181ZM365.602 90.8569L363.059 91.1445C363.039 90.7069 362.868 90.289 362.573 89.9591C362.439 89.8311 362.28 89.7311 362.104 89.6653C361.929 89.5996 361.743 89.5694 361.555 89.5767C361.274 89.5806 360.999 89.6524 360.754 89.7858C360.508 89.9192 360.3 90.11 360.149 90.3412C359.642 91.3281 359.393 92.4225 359.424 93.5265C359.707 93.1554 360.075 92.8546 360.499 92.6484C360.923 92.4422 361.39 92.3363 361.863 92.3393C362.4 92.3374 362.931 92.4513 363.418 92.673C363.905 92.8946 364.336 93.2186 364.68 93.6218C365.485 94.5393 365.904 95.7216 365.853 96.9297C365.915 98.1933 365.473 99.4312 364.62 100.382C364.185 100.821 363.66 101.164 363.078 101.387C362.497 101.61 361.873 101.709 361.249 101.675C360.626 101.642 360.016 101.478 359.463 101.195C358.91 100.911 358.425 100.515 358.043 100.032C357.152 98.9328 356.706 97.1305 356.706 94.6251C356.706 92.0558 357.17 90.2039 358.098 89.0694C358.521 88.5266 359.069 88.0893 359.697 87.7934C360.326 87.4976 361.017 87.3516 361.714 87.3674C362.66 87.3343 363.583 87.6538 364.298 88.2612C365.028 88.9513 365.49 89.8694 365.602 90.8569Z" fill="white"/>
<path d="M303.537 211.624C311.115 211.624 317.258 205.616 317.258 198.204C317.258 190.793 311.115 184.785 303.537 184.785C295.959 184.785 289.815 190.793 289.815 198.204C289.815 205.616 295.959 211.624 303.537 211.624Z" fill="#3F3D56"/>
<path d="M301.838 194.85C301.824 195.078 301.857 195.306 301.934 195.52C302.012 195.735 302.132 195.933 302.289 196.101C302.446 196.253 302.634 196.371 302.841 196.449C303.047 196.526 303.268 196.561 303.489 196.551C303.712 196.561 303.935 196.526 304.144 196.448C304.353 196.37 304.543 196.25 304.703 196.097C304.861 195.928 304.982 195.729 305.061 195.514C305.139 195.298 305.172 195.069 305.159 194.84C305.169 194.62 305.135 194.399 305.058 194.192C304.981 193.984 304.862 193.794 304.709 193.631C304.553 193.479 304.367 193.36 304.162 193.282C303.957 193.204 303.737 193.168 303.517 193.178C303.292 193.167 303.067 193.202 302.856 193.281C302.646 193.36 302.454 193.481 302.294 193.636C302.139 193.799 302.019 193.99 301.941 194.198C301.863 194.407 301.828 194.628 301.838 194.85ZM301.591 200.851C301.553 201.476 301.754 202.093 302.156 202.58C302.33 202.779 302.546 202.938 302.789 203.046C303.033 203.153 303.298 203.206 303.565 203.202C303.824 203.207 304.081 203.157 304.317 203.053C304.553 202.95 304.763 202.797 304.931 202.604C305.323 202.114 305.515 201.5 305.472 200.88C305.501 200.304 305.304 199.739 304.922 199.299C304.749 199.106 304.534 198.951 304.293 198.848C304.052 198.745 303.79 198.694 303.527 198.701C303.245 198.683 302.963 198.735 302.708 198.854C302.453 198.973 302.233 199.154 302.07 199.38C301.758 199.81 301.591 200.324 301.591 200.851ZM301.288 197.554C300.668 197.318 300.141 196.895 299.784 196.345C299.472 195.836 299.309 195.253 299.315 194.66C299.3 194.178 299.389 193.698 299.576 193.252C299.763 192.805 300.044 192.403 300.401 192.069C301.286 191.406 302.37 191.047 303.485 191.047C304.6 191.047 305.683 191.406 306.569 192.069C306.928 192.401 307.211 192.803 307.4 193.25C307.589 193.696 307.679 194.177 307.665 194.66C307.678 195.274 307.502 195.879 307.16 196.395C306.819 196.911 306.326 197.315 305.747 197.554C306.46 197.814 307.071 198.285 307.495 198.902C307.919 199.519 308.134 200.251 308.11 200.994C308.143 201.578 308.049 202.163 307.835 202.71C307.62 203.257 307.289 203.753 306.864 204.165C306.439 204.578 305.93 204.898 305.369 205.104C304.809 205.31 304.21 205.398 303.613 205.361C302.471 205.401 301.352 205.046 300.453 204.358C299.962 203.968 299.572 203.471 299.314 202.906C299.055 202.342 298.935 201.726 298.963 201.108C298.956 200.376 299.149 199.656 299.523 199.022C299.932 198.357 300.552 197.842 301.288 197.554Z" fill="#3F3D56"/>
<path d="M303.537 211.624C311.115 211.624 317.258 205.616 317.258 198.204C317.258 190.793 311.115 184.785 303.537 184.785C295.959 184.785 289.815 190.793 289.815 198.204C289.815 205.616 295.959 211.624 303.537 211.624Z" fill="#6C63FF"/>
<path d="M301.838 194.85C301.824 195.078 301.857 195.306 301.934 195.52C302.012 195.735 302.132 195.933 302.289 196.101C302.446 196.253 302.634 196.371 302.841 196.449C303.047 196.526 303.268 196.561 303.489 196.551C303.712 196.561 303.935 196.526 304.144 196.448C304.353 196.37 304.543 196.25 304.703 196.097C304.861 195.928 304.982 195.729 305.061 195.514C305.139 195.298 305.172 195.069 305.159 194.84C305.169 194.62 305.135 194.399 305.058 194.192C304.981 193.984 304.862 193.794 304.709 193.631C304.553 193.479 304.367 193.36 304.162 193.282C303.957 193.204 303.737 193.168 303.517 193.178C303.292 193.167 303.067 193.202 302.856 193.281C302.646 193.36 302.454 193.481 302.294 193.636C302.139 193.799 302.019 193.99 301.941 194.198C301.863 194.407 301.828 194.628 301.838 194.85ZM301.591 200.851C301.553 201.476 301.754 202.093 302.156 202.58C302.33 202.779 302.546 202.938 302.789 203.046C303.033 203.153 303.298 203.206 303.565 203.202C303.824 203.207 304.081 203.157 304.317 203.053C304.553 202.95 304.763 202.797 304.931 202.604C305.323 202.114 305.515 201.5 305.472 200.88C305.501 200.304 305.304 199.739 304.922 199.299C304.749 199.106 304.534 198.951 304.293 198.848C304.052 198.745 303.79 198.694 303.527 198.701C303.245 198.683 302.963 198.735 302.708 198.854C302.453 198.973 302.233 199.154 302.07 199.38C301.758 199.81 301.591 200.324 301.591 200.851ZM301.288 197.554C300.668 197.318 300.141 196.895 299.784 196.345C299.472 195.836 299.309 195.253 299.315 194.66C299.3 194.178 299.389 193.698 299.576 193.252C299.763 192.805 300.044 192.403 300.401 192.069C301.286 191.406 302.37 191.047 303.485 191.047C304.6 191.047 305.683 191.406 306.569 192.069C306.928 192.401 307.211 192.803 307.4 193.25C307.589 193.696 307.679 194.177 307.665 194.66C307.678 195.274 307.502 195.879 307.16 196.395C306.819 196.911 306.326 197.315 305.747 197.554C306.46 197.814 307.071 198.285 307.495 198.902C307.919 199.519 308.134 200.251 308.11 200.994C308.143 201.578 308.049 202.163 307.835 202.71C307.62 203.257 307.289 203.753 306.864 204.165C306.439 204.578 305.93 204.898 305.369 205.104C304.809 205.31 304.21 205.398 303.613 205.361C302.471 205.401 301.352 205.046 300.453 204.358C299.962 203.968 299.572 203.471 299.314 202.906C299.055 202.342 298.935 201.726 298.963 201.108C298.956 200.376 299.149 199.656 299.523 199.022C299.932 198.357 300.552 197.842 301.288 197.554Z" fill="white"/>
<path d="M188.037 409H0.811475C0.596517 409 0.390351 408.916 0.238353 408.768C0.0863551 408.619 0.000976562 408.417 0.000976562 408.207C0.000976562 407.997 0.0863551 407.795 0.238353 407.647C0.390351 407.498 0.596517 407.415 0.811475 407.415H188.037C188.251 407.415 188.458 407.498 188.61 407.647C188.762 407.795 188.847 407.997 188.847 408.207C188.847 408.417 188.762 408.619 188.61 408.768C188.458 408.916 188.251 409 188.037 409Z" fill="#CCCCCC"/>
</g>
<defs>
<clipPath id="clip0">
<rect width="375" height="409" fill="white" transform="translate(0.000976562)"/>
</clipPath>
</defs>
</svg>
